<svg xmlns="http://www.w3.org/2000/svg" width="340" height="200" viewBox="0 0 340 200" role="img" aria-label="GitHub stats for mulhamna">
<title>mulhamna GitHub stats</title>
<rect width="340" height="200" fill="#0d1117" rx="6"/>
<text x="20" y="30" fill="#c9d1d9" font-size="17" font-weight="700" font-family="Segoe UI, Ubuntu, Sans-serif">GitHub Stats</text>
<line x1="20" y1="42" x2="320" y2="42" stroke="#21262d"/>
<path d="M6.766 11.328c-2.063-.25-3.516-1.734-3.516-3.656 0-.781.281-1.625.75-2.188-.203-.515-.172-1.609.063-2.062.625-.078 1.468.25 1.968.703.594-.187 1.219-.281 1.985-.281.765 0 1.39.094 1.953.265.484-.437 1.344-.765 1.969-.687.218.422.25 1.515.046 2.047.5.593.766 1.39.766 2.203 0 1.922-1.453 3.375-3.547 3.64.531.344.89 1.094.89 1.954v1.625c0 .468.391.734.86.547C13.781 14.359 16 11.53 16 8.03 16 3.61 12.406 0 7.984 0 3.563 0 0 3.61 0 8.031a7.88 7.88 0 0 0 5.172 7.422c.422.156.828-.125.828-.547v-1.25c-.219.094-.5.156-.75.156-1.031 0-1.64-.562-2.078-1.609-.172-.422-.36-.672-.719-.719-.187-.015-.25-.093-.25-.187 0-.188.313-.328.625-.328.453 0 .844.281 1.25.86.313.452.64.655 1.031.655s.641-.14 1-.5c.266-.265.47-.5.657-.656" fill="#30363d" transform="translate(268.0,118.0) scale(3.2500)"/>
<path d="M8 .25a.75.75 0 0 1 .673.418l1.882 3.815 4.21.612a.75.75 0 0 1 .416 1.279l-3.046 2.97.719 4.192a.751.751 0 0 1-1.088.791L8 12.347l-3.766 1.98a.75.75 0 0 1-1.088-.79l.72-4.194L.818 6.374a.75.75 0 0 1 .416-1.28l4.21-.611L7.327.668A.75.75 0 0 1 8 .25Zm0 2.445L6.615 5.5a.75.75 0 0 1-.564.41l-3.097.45 2.24 2.184a.75.75 0 0 1 .216.664l-.528 3.084 2.769-1.456a.75.75 0 0 1 .698 0l2.77 1.456-.53-3.084a.75.75 0 0 1 .216-.664l2.24-2.183-3.096-.45a.75.75 0 0 1-.564-.41L8 2.694Z" fill="#8b949e" transform="translate(22.0,53.0) scale(0.9375)"/>
<text x="44" y="64" fill="#c9d1d9" font-size="12.5" font-family="Segoe UI, Ubuntu, Sans-serif">Total Stars</text>
<text x="222" y="64" text-anchor="end" fill="#58a6ff" font-size="13" font-weight="700" font-family="Segoe UI, Ubuntu, Sans-serif">61</text>
<path d="M11.93 8.5a4.002 4.002 0 0 1-7.86 0H.75a.75.75 0 0 1 0-1.5h3.32a4.002 4.002 0 0 1 7.86 0h3.32a.75.75 0 0 1 0 1.5Zm-1.43-.75a2.5 2.5 0 1 0-5 0 2.5 2.5 0 0 0 5 0Z" fill="#8b949e" transform="translate(22.0,79.0) scale(0.9375)"/>
<text x="44" y="90" fill="#c9d1d9" font-size="12.5" font-family="Segoe UI, Ubuntu, Sans-serif">Total Commits</text>
<text x="222" y="90" text-anchor="end" fill="#58a6ff" font-size="13" font-weight="700" font-family="Segoe UI, Ubuntu, Sans-serif">3,384</text>
<path d="M1.5 3.25a2.25 2.25 0 1 1 3 2.122v5.256a2.251 2.251 0 1 1-1.5 0V5.372A2.25 2.25 0 0 1 1.5 3.25Zm5.677-.177L9.573.677A.25.25 0 0 1 10 .854V2.5h1A2.5 2.5 0 0 1 13.5 5v5.628a2.251 2.251 0 1 1-1.5 0V5a1 1 0 0 0-1-1h-1v1.646a.25.25 0 0 1-.427.177L7.177 3.427a.25.25 0 0 1 0-.354ZM3.75 2.5a.75.75 0 1 0 0 1.5.75.75 0 0 0 0-1.5Zm0 9.5a.75.75 0 1 0 0 1.5.75.75 0 0 0 0-1.5Zm8.25.75a.75.75 0 1 0 1.5 0 .75.75 0 0 0-1.5 0Z" fill="#8b949e" transform="translate(22.0,105.0) scale(0.9375)"/>
<text x="44" y="116" fill="#c9d1d9" font-size="12.5" font-family="Segoe UI, Ubuntu, Sans-serif">Total PRs</text>
<text x="222" y="116" text-anchor="end" fill="#58a6ff" font-size="13" font-weight="700" font-family="Segoe UI, Ubuntu, Sans-serif">1,144</text>
<path d="M8 9.5a1.5 1.5 0 1 0 0-3 1.5 1.5 0 0 0 0 3Z" fill="#8b949e" transform="translate(22.0,131.0) scale(0.9375)"/>
<text x="44" y="142" fill="#c9d1d9" font-size="12.5" font-family="Segoe UI, Ubuntu, Sans-serif">Total Issues</text>
<text x="222" y="142" text-anchor="end" fill="#58a6ff" font-size="13" font-weight="700" font-family="Segoe UI, Ubuntu, Sans-serif">30</text>
<path d="M2 2.5A2.5 2.5 0 0 1 4.5 0h8.75a.75.75 0 0 1 .75.75v12.5a.75.75 0 0 1-.75.75h-2.5a.75.75 0 0 1 0-1.5h1.75v-2h-8a1 1 0 0 0-.714 1.7.75.75 0 1 1-1.072 1.05A2.495 2.495 0 0 1 2 11.5Zm10.5-1h-8a1 1 0 0 0-1 1v6.708A2.486 2.486 0 0 1 4.5 9h8ZM5 12.25a.25.25 0 0 1 .25-.25h3.5a.25.25 0 0 1 .25.25v3.25a.25.25 0 0 1-.4.2l-1.45-1.087a.249.249 0 0 0-.3 0L5.4 15.7a.25.25 0 0 1-.4-.2Z" fill="#8b949e" transform="translate(22.0,157.0) scale(0.9375)"/>
<text x="44" y="168" fill="#c9d1d9" font-size="12.5" font-family="Segoe UI, Ubuntu, Sans-serif">Contributed to</text>
<text x="222" y="168" text-anchor="end" fill="#58a6ff" font-size="13" font-weight="700" font-family="Segoe UI, Ubuntu, Sans-serif">42</text>
<text x="20" y="190" fill="#8b949e" font-size="8.5" font-family="Segoe UI, Ubuntu, Sans-serif">commits: last 12 months · PRs/issues: all time</text>
</svg>