<svg xmlns="http://www.w3.org/2000/svg" width="660" height="330" viewBox="0 0 660 330" role="img" aria-label="Top languages by commit for mulhamna">
  <title>Top languages by commit contributions</title>
  <rect width="660" height="330" fill="#0d1117" rx="6"/>
  <text x="30" y="34" fill="#c9d1d9" font-size="16" font-weight="600" font-family="Segoe UI, Ubuntu, Sans-serif">Top Languages by Commit</text>
  <text x="632" y="34" text-anchor="end" fill="#8b949e" font-size="12" font-family="Segoe UI, Ubuntu, Sans-serif">past year</text>
  <circle cx="168" cy="196" r="96" fill="none" stroke="#3572A5" stroke-width="36" stroke-dasharray="170.51 432.67" stroke-dashoffset="-0.00" transform="rotate(-90 168 196)"/><circle cx="168" cy="196" r="96" fill="none" stroke="#3178c6" stroke-width="36" stroke-dasharray="140.17 463.01" stroke-dashoffset="-171.51" transform="rotate(-90 168 196)"/><circle cx="168" cy="196" r="96" fill="none" stroke="#dea584" stroke-width="36" stroke-dasharray="132.87 470.31" stroke-dashoffset="-312.69" transform="rotate(-90 168 196)"/><circle cx="168" cy="196" r="96" fill="none" stroke="#f1e05a" stroke-width="36" stroke-dasharray="31.01 572.17" stroke-dashoffset="-446.56" transform="rotate(-90 168 196)"/><circle cx="168" cy="196" r="96" fill="none" stroke="#ff3e00" stroke-width="36" stroke-dasharray="27.72 575.47" stroke-dashoffset="-478.57" transform="rotate(-90 168 196)"/><circle cx="168" cy="196" r="96" fill="none" stroke="#00ADD8" stroke-width="36" stroke-dasharray="16.94 586.25" stroke-dashoffset="-507.29" transform="rotate(-90 168 196)"/><circle cx="168" cy="196" r="96" fill="none" stroke="#8b949e" stroke-width="36" stroke-dasharray="76.96 526.22" stroke-dashoffset="-525.22" transform="rotate(-90 168 196)"/>
  <text x="168" y="194" text-anchor="middle" fill="#c9d1d9" font-size="22" font-weight="700" font-family="Segoe UI, Ubuntu, Sans-serif">3,381</text>
  <text x="168" y="216" text-anchor="middle" fill="#8b949e" font-size="11" font-family="Segoe UI, Ubuntu, Sans-serif">commits · 1y</text>
  <circle cx="330" cy="104" r="5" fill="#3572A5"/><text x="344" y="108" fill="#c9d1d9" font-size="13" font-family="Segoe UI, Ubuntu, Sans-serif">Python</text><text x="632" y="108" text-anchor="end" fill="#c9d1d9" font-size="13" font-weight="600" font-family="Segoe UI, Ubuntu, Sans-serif">28.4%</text><circle cx="330" cy="131" r="5" fill="#3178c6"/><text x="344" y="135" fill="#c9d1d9" font-size="13" font-family="Segoe UI, Ubuntu, Sans-serif">TypeScript</text><text x="632" y="135" text-anchor="end" fill="#c9d1d9" font-size="13" font-weight="600" font-family="Segoe UI, Ubuntu, Sans-serif">23.4%</text><circle cx="330" cy="158" r="5" fill="#dea584"/><text x="344" y="162" fill="#c9d1d9" font-size="13" font-family="Segoe UI, Ubuntu, Sans-serif">Rust</text><text x="632" y="162" text-anchor="end" fill="#c9d1d9" font-size="13" font-weight="600" font-family="Segoe UI, Ubuntu, Sans-serif">22.2%</text><circle cx="330" cy="185" r="5" fill="#f1e05a"/><text x="344" y="189" fill="#c9d1d9" font-size="13" font-family="Segoe UI, Ubuntu, Sans-serif">JavaScript</text><text x="632" y="189" text-anchor="end" fill="#c9d1d9" font-size="13" font-weight="600" font-family="Segoe UI, Ubuntu, Sans-serif">5.3%</text><circle cx="330" cy="212" r="5" fill="#ff3e00"/><text x="344" y="216" fill="#c9d1d9" font-size="13" font-family="Segoe UI, Ubuntu, Sans-serif">Svelte</text><text x="632" y="216" text-anchor="end" fill="#c9d1d9" font-size="13" font-weight="600" font-family="Segoe UI, Ubuntu, Sans-serif">4.8%</text><circle cx="330" cy="239" r="5" fill="#00ADD8"/><text x="344" y="243" fill="#c9d1d9" font-size="13" font-family="Segoe UI, Ubuntu, Sans-serif">Go</text><text x="632" y="243" text-anchor="end" fill="#c9d1d9" font-size="13" font-weight="600" font-family="Segoe UI, Ubuntu, Sans-serif">3.0%</text><circle cx="330" cy="266" r="5" fill="#8b949e"/><text x="344" y="270" fill="#c9d1d9" font-size="13" font-family="Segoe UI, Ubuntu, Sans-serif">Other</text><text x="632" y="270" text-anchor="end" fill="#c9d1d9" font-size="13" font-weight="600" font-family="Segoe UI, Ubuntu, Sans-serif">12.9%</text>
</svg>
